<svg xmlns="http://www.w3.org/2000/svg" width="512" height="512" viewBox="0 0 512 512"><defs><clipPath id="circle-clip"><circle cx="256" cy="256" r="252"/></clipPath><radialGradient id="bg-grad" cx="50%" cy="50%" r="50%"><stop offset="0%" stop-color="#1A1A2E"/><stop offset="60%" stop-color="#0F1020"/><stop offset="100%" stop-color="#0A0E1A"/></radialGradient><filter id="center-glow" width="116%" height="116%" x="-8%" y="-8%"><feGaussianBlur result="blur" stdDeviation="3"/><feMerge><feMergeNode in="blur"/><feMergeNode in="SourceGraphic"/></feMerge></filter><filter id="card-shadow" width="120%" height="120%" x="-10%" y="-10%"><feDropShadow dx="0" dy="4" flood-color="#000" flood-opacity=".4" stdDeviation="8"/></filter></defs><circle cx="256" cy="256" r="256" fill="url(#bg-grad)"/><g clip-path="url(#circle-clip)"><g transform="rotate(25, 256, 256)"><rect width="190" height="190" x="183" y="43" fill="#0082FF" filter="url(#card-shadow)" opacity=".95" rx="42" ry="42"/></g><g transform="rotate(-25, 256, 256)"><rect width="190" height="190" x="139" y="43" fill="#00D2C8" filter="url(#card-shadow)" opacity=".95" rx="42" ry="42"/></g><g transform="rotate(18, 256, 256)"><rect width="190" height="190" x="139" y="279" fill="#8232FF" filter="url(#card-shadow)" opacity=".95" rx="42" ry="42"/></g><g transform="rotate(-18, 256, 256)"><rect width="190" height="190" x="183" y="279" fill="#32D25A" filter="url(#card-shadow)" opacity=".95" rx="42" ry="42"/></g></g><rect width="206" height="206" x="153" y="153" fill="#16162A" filter="url(#center-glow)" rx="40" ry="40"/><rect width="206" height="206" x="153" y="153" fill="none" stroke="#37376A" stroke-width="1.5" rx="40" ry="40"/><text x="256" y="222" fill="#50A0FF" font-family="'Courier New', 'DejaVu Sans Mono', monospace" font-size="36" font-weight="700" letter-spacing="2" text-anchor="middle">&lt;/&gt;</text><text x="256" y="270" fill="#D2DAFF" font-family="'Arial', 'Helvetica Neue', sans-serif" font-size="34" font-weight="400" letter-spacing="1" text-anchor="middle">Mobile</text><text x="256" y="320" fill="#FFF" font-family="'Arial', 'Helvetica Neue', sans-serif" font-size="54" font-weight="800" letter-spacing="3" text-anchor="middle">IDE</text></svg>