<svg xmlns="http://www.w3.org/2000/svg" width="108" height="108" viewBox="0 0 108 108"><defs><filter id="card-shadow" width="124%" height="124%" x="-12%" y="-12%"><feDropShadow dx="0" dy="1.5" flood-color="#000" flood-opacity=".35" stdDeviation="2.5"/></filter><filter id="center-glow" width="112%" height="112%" x="-6%" y="-6%"><feGaussianBlur result="blur" stdDeviation=".8"/><feMerge><feMergeNode in="blur"/><feMergeNode in="SourceGraphic"/></feMerge></filter></defs><g transform="rotate(25, 54, 54)"><rect width="40" height="40" x="38" y="9" fill="#0082FF" filter="url(#card-shadow)" opacity=".95" rx="9" ry="9"/></g><g transform="rotate(-25, 54, 54)"><rect width="40" height="40" x="30" y="9" fill="#00D2C8" filter="url(#card-shadow)" opacity=".95" rx="9" ry="9"/></g><g transform="rotate(18, 54, 54)"><rect width="40" height="40" x="30" y="59" fill="#8232FF" filter="url(#card-shadow)" opacity=".95" rx="9" ry="9"/></g><g transform="rotate(-18, 54, 54)"><rect width="40" height="40" x="38" y="59" fill="#32D25A" filter="url(#card-shadow)" opacity=".95" rx="9" ry="9"/></g><rect width="44" height="44" x="32" y="32" fill="#16162A" filter="url(#center-glow)" rx="9" ry="9"/><rect width="44" height="44" x="32" y="32" fill="none" stroke="#37376A" stroke-width=".5" rx="9" ry="9"/><text x="54" y="48" fill="#50A0FF" font-family="'Courier New', monospace" font-size="8" font-weight="700" letter-spacing=".5" text-anchor="middle">&lt;/&gt;</text><text x="54" y="58" fill="#D2DAFF" font-family="'Arial', sans-serif" font-size="7.5" font-weight="400" text-anchor="middle">Mobile</text><text x="54" y="70" fill="#FFF" font-family="'Arial', sans-serif" font-size="12" font-weight="800" letter-spacing="1" text-anchor="middle">IDE</text></svg>